<svg width="32" height="32" viewBox="0 0 32 32" fill="none" xmlns="http://www.w3.org/2000/svg">
<circle cx="16" cy="16" r="16" fill="#FF9F38"/>
<path fill-rule="evenodd" clip-rule="evenodd" d="M23.2932 13.3736C23.6126 11.2722 21.9879 10.1423 19.768 9.38839L20.4883 6.54113L18.7303 6.11003L18.0283 8.8821C17.576 8.77019 17.112 8.66597 16.6487 8.5619L16.6487 8.56189L16.6192 8.55527L17.3263 5.76516L15.5683 5.33305L14.848 8.17931L14.7711 8.16199C14.415 8.08177 14.0646 8.00283 13.7248 7.91865L13.7268 7.90962L11.3014 7.3131L10.8334 9.16382C10.8334 9.16382 12.1387 9.45857 12.1112 9.47662C12.8234 9.65207 12.9516 10.1163 12.9302 10.4852L12.1102 13.7285C12.159 13.7405 12.2221 13.7585 12.2933 13.7856L12.1071 13.7405L10.9575 18.2841C10.87 18.4966 10.6492 18.8164 10.1507 18.6951C10.169 18.7202 8.87291 18.3813 8.87291 18.3813L8 20.3644L10.2891 20.9268C10.5349 20.9877 10.7779 21.0502 11.0185 21.112L11.0186 21.1121L11.0189 21.1122C11.1944 21.1573 11.3686 21.2021 11.5415 21.2456L10.8141 24.125L12.5711 24.5561L13.2914 21.7088C13.7716 21.8361 14.2375 21.9544 14.6933 22.0667L13.975 24.902L15.7331 25.3331L16.4605 22.4597C19.4597 23.0192 21.7142 22.7936 22.6634 20.1208C23.4285 17.9693 22.6258 16.7271 21.0478 15.918C22.1975 15.6574 23.0622 14.9125 23.2932 13.3736ZM19.2743 18.9255C18.7768 20.9001 15.6408 20.0838 14.2053 19.7101C14.0759 19.6765 13.9604 19.6464 13.8618 19.6223L14.8283 15.8076C14.9486 15.8372 15.0955 15.8697 15.262 15.9066L15.262 15.9066C16.7468 16.2353 19.7857 16.908 19.2743 18.9255ZM15.5606 14.1363C16.7568 14.451 19.365 15.1372 19.819 13.3428C20.2835 11.5075 17.748 10.9547 16.5095 10.6847C16.3699 10.6543 16.2468 10.6275 16.1463 10.6028L15.2714 14.0616C15.3543 14.082 15.4516 14.1076 15.5606 14.1363Z" fill="white"/>
</svg>
