<svg width="20" height="20" viewBox="0 0 20 20" fill="none" xmlns="http://www.w3.org/2000/svg">
<path d="M19.9458 10.0002C19.9458 15.494 15.4923 19.9476 9.99858 19.9476C4.5048 19.9476 0.0512695 15.494 0.0512695 10.0002C0.0512695 4.50647 4.5048 0.0529327 9.99858 0.0529327C15.4922 0.0529327 19.9458 4.50647 19.9458 10.0002Z" fill="#00A478"/>
<path d="M8.97846 9.82602V8.08579H6.61816V6.56039H13.2138V8.10727H10.8535V9.82602H8.97846Z" fill="white"/>
<path fill-rule="evenodd" clip-rule="evenodd" d="M5.60352 10.0194C5.60352 9.4393 7.50057 8.96664 9.86087 8.96664C12.2212 8.96664 14.1182 9.4393 14.1182 10.0194C14.1182 10.5995 12.2212 11.0721 9.86087 11.0721C7.50057 11.0721 5.60352 10.5995 5.60352 10.0194ZM13.7653 10.0194C13.6109 9.80453 12.3315 9.13852 9.86087 9.13852C7.39028 9.13852 6.11087 9.78305 5.95646 10.0194C6.11087 10.2342 7.39028 10.5565 9.86087 10.5565C12.3535 10.5565 13.6109 10.2342 13.7653 10.0194Z" fill="white"/>
<path d="M10.8534 10.3631V9.16C10.5446 9.13852 10.2137 9.11703 9.88284 9.11703C9.57402 9.11703 9.28725 9.11703 9.00049 9.13852V10.3416C9.26519 10.3416 9.57402 10.3631 9.88284 10.3631C10.2137 10.3846 10.5446 10.3846 10.8534 10.3631Z" fill="white"/>
<path d="M9.86087 11.0721C9.55205 11.0721 9.26528 11.0721 8.97852 11.0506V14.2518H10.8315V11.0291C10.5226 11.0506 10.1918 11.0721 9.86087 11.0721Z" fill="white"/>
</svg>
