<svg width="145" height="108" viewBox="0 0 145 108" fill="none" xmlns="http://www.w3.org/2000/svg">
<path d="M74.6528 107.78C104.218 107.78 128.187 83.8113 128.187 54.1402C128.187 24.4692 104.113 0.5 74.6528 0.5C45.0873 0.5 21.1182 24.4692 21.1182 54.1402C21.1182 83.8113 45.0873 107.78 74.6528 107.78Z" fill="#EAEEF9"/>
<path d="M134.984 37.145C137.374 37.145 139.313 35.2067 139.313 32.8158C139.313 30.4248 137.374 28.4865 134.984 28.4865C132.593 28.4865 130.654 30.4248 130.654 32.8158C130.654 35.2067 132.593 37.145 134.984 37.145Z" fill="#F1F3F9"/>
<path d="M141.319 20.251C142.952 20.251 144.275 18.9273 144.275 17.2944C144.275 15.6616 142.952 14.3379 141.319 14.3379C139.686 14.3379 138.362 15.6616 138.362 17.2944C138.362 18.9273 139.686 20.251 141.319 20.251Z" fill="#F1F3F9"/>
<path d="M23.5469 18.9785C25.1797 18.9785 26.5034 17.6548 26.5034 16.022C26.5034 14.3891 25.1797 13.0654 23.5469 13.0654C21.914 13.0654 20.5903 14.3891 20.5903 16.022C20.5903 17.6548 21.914 18.9785 23.5469 18.9785Z" fill="#EAEEF9"/>
<path d="M5.49073 75.9981C8.52318 75.9981 10.9815 73.5398 10.9815 70.5073C10.9815 67.4749 8.52318 65.0166 5.49073 65.0166C2.45828 65.0166 0 67.4749 0 70.5073C0 73.5398 2.45828 75.9981 5.49073 75.9981Z" fill="#EAEEF9"/>
<path d="M85.5262 68.6936V89.0052C85.5262 90.7715 84.4985 92.5377 83.0304 93.4208L67.4679 102.399C66.587 102.988 65.4125 103.282 64.3848 103.282V77.9663L84.7921 66.1914C85.2326 66.9273 85.5262 67.8105 85.5262 68.6936Z" fill="#F2F5FE"/>
<path d="M64.3846 77.9663V103.282C63.3569 103.282 62.3292 102.988 61.3015 102.399L45.739 93.4208C44.1241 92.5377 43.2432 90.9186 43.2432 89.0052V68.6936C43.2432 67.8105 43.5368 66.9273 43.9772 66.1914L64.3846 77.9663Z" fill="#D5DDEA"/>
<path d="M84.7921 66.1911L64.3848 77.966L43.8306 66.0439C44.271 65.308 44.8583 64.572 45.7392 64.1305L61.7421 54.8578C63.2102 53.9747 65.1188 53.9747 66.7338 54.7106L83.1772 64.2777C83.1772 64.2777 83.1772 64.2777 83.324 64.2777C83.9112 64.8664 84.4985 65.4552 84.7921 66.1911Z" fill="white"/>
<path d="M127.809 68.6936V89.0052C127.809 90.7715 126.781 92.5377 125.313 93.4208L109.751 102.399C108.87 102.988 107.695 103.282 106.667 103.282V77.9663L127.075 66.1914C127.515 66.9273 127.809 67.8105 127.809 68.6936Z" fill="#F2F5FE"/>
<path d="M106.668 77.9663V103.282C105.64 103.282 104.612 102.988 103.584 102.399L88.022 93.4208C86.407 92.5377 85.5261 90.9186 85.5261 89.0052V68.6936C85.5261 67.8105 85.8198 66.9273 86.2602 66.1914L106.668 77.9663Z" fill="#D5DDEA"/>
<path d="M127.075 66.1911L106.667 77.966L86.1133 66.0439C86.5537 65.308 87.141 64.572 88.0219 64.1305L104.025 54.8578C105.493 53.9747 107.402 53.9747 109.017 54.7106L125.46 64.2777C125.46 64.2777 125.46 64.2777 125.607 64.2777C126.194 64.8664 126.781 65.4552 127.075 66.1911Z" fill="white"/>
<path d="M64.2381 30.2773V50.589C64.2381 52.3552 63.2104 54.1214 61.7423 55.0045L46.1798 63.9829C45.2989 64.5716 44.1244 64.866 43.0967 64.866V39.55L63.5041 27.7751C64.0913 28.5111 64.2381 29.3942 64.2381 30.2773Z" fill="#F2F5FE"/>
<path d="M43.0965 39.55V64.866C42.0688 64.866 41.0411 64.5716 40.0134 63.9829L24.4509 55.0045C22.836 54.1214 21.9551 52.5024 21.9551 50.589V30.2773C21.9551 29.3942 22.2487 28.5111 22.6892 27.7751L43.0965 39.55Z" fill="#D5DDEA"/>
<path d="M63.6505 27.775L43.2432 39.5498L22.689 27.6278C23.1294 26.8918 23.7167 26.1559 24.5976 25.7143L40.6005 16.4416C42.0686 15.5585 43.9772 15.5585 45.5922 16.2944L61.8887 26.0087C61.8887 26.0087 61.8887 26.0087 62.0356 26.0087C62.6228 26.4503 63.2101 27.039 63.6505 27.775Z" fill="white"/>
<path d="M109.31 29.8363V52.5029C109.31 54.5635 108.283 56.477 106.374 57.5073L88.9029 67.6631C87.8752 68.2518 86.7006 68.5462 85.5261 68.5462V40.1393L108.576 26.8926C109.017 27.7757 109.31 28.806 109.31 29.8363Z" fill="#F2F5FE"/>
<path d="M85.5262 40.139V58.0957V68.5459C84.3516 68.5459 83.1771 68.2515 82.1494 67.6628L74.515 63.2472L64.5315 57.507C62.7697 56.4767 61.742 54.5633 61.5952 52.6498V29.6888C61.5952 28.6585 61.8888 27.6282 62.3293 26.7451L85.5262 40.139Z" fill="#D5DDEA"/>
<path d="M108.429 26.8916L85.3792 40.1383L62.3291 26.7444C62.7695 25.8613 63.5036 25.1253 64.3845 24.6838L82.296 14.2336C84.0578 13.2033 86.1132 13.2033 87.875 14.0864L106.374 24.831C106.374 24.831 106.521 24.831 106.521 24.9782C107.402 25.5669 107.989 26.1557 108.429 26.8916Z" fill="white"/>
<path fill-rule="evenodd" clip-rule="evenodd" d="M108.206 12.2656C108.856 12.2656 109.383 12.7922 109.383 13.4418V20.4987C109.383 21.1483 108.856 21.6749 108.206 21.6749C107.557 21.6749 107.03 21.1483 107.03 20.4987V13.4418C107.03 12.7922 107.557 12.2656 108.206 12.2656Z" fill="#989FB0"/>
<path fill-rule="evenodd" clip-rule="evenodd" d="M123.936 12.6101C124.396 13.0694 124.396 13.8141 123.936 14.2735L115.311 22.8986C114.852 23.3579 114.107 23.3579 113.648 22.8986C113.188 22.4393 113.188 21.6946 113.648 21.2353L122.273 12.6101C122.732 12.1508 123.477 12.1508 123.936 12.6101Z" fill="#989FB0"/>
<path fill-rule="evenodd" clip-rule="evenodd" d="M114.087 29.1244C114.087 28.4748 114.614 27.9482 115.264 27.9482H123.105C123.754 27.9482 124.281 28.4748 124.281 29.1244C124.281 29.774 123.754 30.3006 123.105 30.3006H115.264C114.614 30.3006 114.087 29.774 114.087 29.1244Z" fill="#989FB0"/>
<path d="M96.9654 43.2842C96.7251 44.3024 96.3646 45.3805 95.944 46.2788C94.8025 48.4949 93 50.2317 90.777 51.3697C88.4939 52.5077 85.7902 52.9868 83.0866 52.3879C76.7179 51.0702 72.6324 44.8414 73.9542 38.4928C75.276 32.1442 81.4644 28.0117 87.833 29.3892C90.1161 29.8683 92.0988 31.0063 93.7811 32.5635C96.6049 35.3784 97.8065 39.4511 96.9654 43.2842Z" fill="url(#paint0_linear_382_729)"/>
<path d="M89.1596 39.8729H86.4797V37.1931C86.4797 36.6571 86.0628 36.1807 85.4673 36.1807C84.9314 36.1807 84.4549 36.5975 84.4549 37.1931V39.8729H81.7751C81.2391 39.8729 80.7627 40.2898 80.7627 40.8853C80.7627 41.4808 81.1796 41.8977 81.7751 41.8977H84.4549V44.5775C84.4549 45.1135 84.8718 45.5899 85.4673 45.5899C86.0033 45.5899 86.4797 45.1731 86.4797 44.5775V41.8977H89.1596C89.6955 41.8977 90.172 41.4808 90.172 40.8853C90.172 40.2898 89.6955 39.8729 89.1596 39.8729Z" fill="white"/>
<defs>
<linearGradient id="paint0_linear_382_729" x1="73.695" y1="40.8882" x2="97.2332" y2="40.8882" gradientUnits="userSpaceOnUse">
<stop stop-color="#B0BACC"/>
<stop offset="1" stop-color="#969EAE"/>
</linearGradient>
</defs>
</svg>
