<svg width="480" height="468" viewBox="0 0 480 468" fill="none" xmlns="http://www.w3.org/2000/svg">
<mask id="mask0_379_38976" style="mask-type:alpha" maskUnits="userSpaceOnUse" x="0" y="-13" width="480" height="481">
<rect width="480" height="480" transform="translate(0 -12.5)" fill="url(#paint0_radial_379_38976)"/>
</mask>
<g mask="url(#mask0_379_38976)">
<g clip-path="url(#clip0_379_38976)">
<g clip-path="url(#clip1_379_38976)">
<line x1="0.5" y1="-12.5" x2="0.5" y2="467.5" stroke="#E9EAEB"/>
<line x1="32.5" y1="-12.5" x2="32.5" y2="467.5" stroke="#E9EAEB"/>
<line x1="64.5" y1="-12.5" x2="64.5" y2="467.5" stroke="#E9EAEB"/>
<line x1="96.5" y1="-12.5" x2="96.5" y2="467.5" stroke="#E9EAEB"/>
<line x1="128.5" y1="-12.5" x2="128.5" y2="467.5" stroke="#E9EAEB"/>
<line x1="160.5" y1="-12.5" x2="160.5" y2="467.5" stroke="#E9EAEB"/>
<line x1="192.5" y1="-12.5" x2="192.5" y2="467.5" stroke="#E9EAEB"/>
<line x1="224.5" y1="-12.5" x2="224.5" y2="467.5" stroke="#E9EAEB"/>
<line x1="256.5" y1="-12.5" x2="256.5" y2="467.5" stroke="#E9EAEB"/>
<line x1="288.5" y1="-12.5" x2="288.5" y2="467.5" stroke="#E9EAEB"/>
<line x1="320.5" y1="-12.5" x2="320.5" y2="467.5" stroke="#E9EAEB"/>
<line x1="352.5" y1="-12.5" x2="352.5" y2="467.5" stroke="#E9EAEB"/>
<line x1="384.5" y1="-12.5" x2="384.5" y2="467.5" stroke="#E9EAEB"/>
<line x1="416.5" y1="-12.5" x2="416.5" y2="467.5" stroke="#E9EAEB"/>
<line x1="448.5" y1="-12.5" x2="448.5" y2="467.5" stroke="#E9EAEB"/>
</g>
<rect x="0.5" y="-12" width="479" height="479" stroke="#E9EAEB"/>
<g clip-path="url(#clip2_379_38976)">
<line y1="19" x2="480" y2="19" stroke="#E9EAEB"/>
<line y1="51" x2="480" y2="51" stroke="#E9EAEB"/>
<line y1="83" x2="480" y2="83" stroke="#E9EAEB"/>
<line y1="115" x2="480" y2="115" stroke="#E9EAEB"/>
<line y1="147" x2="480" y2="147" stroke="#E9EAEB"/>
<line y1="179" x2="480" y2="179" stroke="#E9EAEB"/>
<line y1="211" x2="480" y2="211" stroke="#E9EAEB"/>
<line y1="243" x2="480" y2="243" stroke="#E9EAEB"/>
<line y1="275" x2="480" y2="275" stroke="#E9EAEB"/>
<line y1="307" x2="480" y2="307" stroke="#E9EAEB"/>
<line y1="339" x2="480" y2="339" stroke="#E9EAEB"/>
<line y1="371" x2="480" y2="371" stroke="#E9EAEB"/>
<line y1="403" x2="480" y2="403" stroke="#E9EAEB"/>
<line y1="435" x2="480" y2="435" stroke="#E9EAEB"/>
<line y1="467" x2="480" y2="467" stroke="#E9EAEB"/>
</g>
<rect x="0.5" y="-12" width="479" height="479" stroke="#E9EAEB"/>
</g>
</g>
<defs>
<radialGradient id="paint0_radial_379_38976" cx="0" cy="0" r="1" gradientUnits="userSpaceOnUse" gradientTransform="translate(240 240) rotate(90) scale(240 240)">
<stop/>
<stop offset="1" stop-opacity="0"/>
</radialGradient>
<clipPath id="clip0_379_38976">
<rect width="480" height="480" fill="white" transform="translate(0 -12.5)"/>
</clipPath>
<clipPath id="clip1_379_38976">
<rect y="-12.5" width="480" height="480" fill="white"/>
</clipPath>
<clipPath id="clip2_379_38976">
<rect y="-12.5" width="480" height="480" fill="white"/>
</clipPath>
</defs>
</svg>
